<svg width="1000" height="760" viewBox="0 0 1000 760" fill="none" xmlns="http://www.w3.org/2000/svg" role="img" aria-labelledby="title desc">
  <title id="title">Modern dental facility visual</title>
  <desc id="desc">A calm clinical facility illustration representing advanced dental technology and patient comfort.</desc>
  <rect width="1000" height="760" rx="48" fill="#F7FAFC"/>
  <rect x="70" y="84" width="860" height="540" rx="38" fill="white" stroke="#E3EAF0" stroke-width="4"/>
  <rect x="116" y="126" width="354" height="206" rx="28" fill="#EAF4F8"/>
  <rect x="512" y="126" width="372" height="206" rx="28" fill="#FDF8EF"/>
  <rect x="116" y="374" width="768" height="204" rx="28" fill="#102A4C"/>
  <path d="M174 486C248 408 355 408 430 486C504 565 611 565 686 486C741 428 813 416 874 449" stroke="#C9A45C" stroke-width="14" stroke-linecap="round"/>
  <circle cx="284" cy="229" r="64" fill="white"/>
  <path d="M262 229H306M284 207V251" stroke="#0B1F3A" stroke-width="12" stroke-linecap="round"/>
  <rect x="584" y="186" width="226" height="20" rx="10" fill="#0B1F3A"/>
  <rect x="584" y="231" width="172" height="16" rx="8" fill="#C9A45C"/>
  <rect x="584" y="270" width="126" height="16" rx="8" fill="#E3EAF0"/>
  <rect x="176" y="654" width="648" height="34" rx="17" fill="#E3EAF0"/>
  <rect x="176" y="654" width="382" height="34" rx="17" fill="#2A9D8F"/>
</svg>
